# xmcd
#
# Track frame offsets:
# 180
# 18265
# 37902
# 52030
# 65260
# 75900
# 95392
# 108250
# 123545
# 134530
#
# Disc length: 2034 seconds
#
#
# Revision: 6
# Processed by: cddbd v1.5.2PL0 Copyright (c) Steve Scherf et al.
# Submitted via: FreeRIP 2.942 
#
DISCID=7707f00a
DTITLE=Elis Regina - Luz Das Estrelas
DYEAR=1994
DGENRE=MPB
TTITLE0=Para Lennon E McCartney
TTITLE1=No Dia Em Que Eu Vim Embora
TTITLE2=Mestre-sala Dos Mares
TTITLE3=Velho Arvoredo
TTITLE4=A Banca Do Distinto
TTITLE5=Corsário
TTITLE6=Bodas De Prata
TTITLE7=Gol Anulado
TTITLE8=Triste
TTITLE9=Doente Morena
EXTD=
EXTT0=
EXTT1=
EXTT2=
EXTT3=
EXTT4=
EXTT5=
EXTT6=
EXTT7=
EXTT8=
EXTT9=
PLAYORDER=
